<svg width="70" height="71" fill="none" xmlns="http://www.w3.org/2000/svg"><circle cx="35" cy="35.5" r="34.5" fill="#37223B" stroke="url(#paint0_linear_296_1077)"/><g clip-path="url(#clip0_296_1077)"><path d="M46.945 16.254c-1.898.476-2.82.75-2.93.851-.18.172-.203.618-.038.813.242.289.398.273 2.304-.203 1.024-.258 1.867-.453 1.875-.445.032.023-3.414 3.937-3.773 4.296l-.211.211-.469-.164c-.36-.117-.601-.148-1.055-.125-1.117.063-2.015.688-2.46 1.719l-.227.531h-6.766l-.226-.5c-.305-.672-.774-1.164-1.407-1.476-.468-.227-.578-.25-1.257-.25-.649 0-.797.023-1.18.218-.531.258-1.188.93-1.414 1.438-.242.547-.281 1.492-.086 2.055l.156.43-2.148 1.796a342.88 342.88 0 01-2.594 2.164l-.445.375-.5-.258c-.461-.226-.563-.25-1.242-.25-.68 0-.79.024-1.258.25a2.963 2.963 0 00-1.383 1.415c-.18.382-.211.546-.211 1.148 0 .602.031.766.21 1.148.29.618.767 1.11 1.384 1.414.46.227.578.25 1.218.25.61 0 .766-.03 1.188-.226.578-.266 1.203-.883 1.445-1.43.235-.531.274-1.383.102-2.023-.078-.281-.125-.516-.11-.531.016-.008 1.102-.915 2.415-2.008 1.304-1.094 2.46-2.047 2.554-2.125.172-.14.188-.14.703.117.477.234.594.258 1.235.258.64 0 .758-.024 1.218-.25.633-.313 1.102-.805 1.407-1.477l.226-.5h3.399c3.172 0 3.406.008 3.453.133.297.89.812 1.508 1.57 1.875.39.188.54.21 1.188.219.664 0 .789-.024 1.21-.227 1.493-.734 2.07-2.453 1.329-3.93-.188-.359-.188-.375-.047-.53.078-.087.976-1.11 2-2.266 1.023-1.165 1.89-2.125 1.922-2.133.039-.016.07.867.07 1.953 0 1.976 0 1.992.18 2.156.25.235.633.227.883-.023l.195-.196-.024-3.015-.023-3.016-.219-.187c-.117-.102-.297-.188-.39-.18-.094 0-1.422.32-2.946.71zm-15.937 6.625c.805.406 1.14 1.305.789 2.07-.313.672-.875 1.016-1.586.961-.867-.062-1.469-.703-1.469-1.57 0-.711.375-1.274 1.016-1.531.328-.133.922-.102 1.25.07zm12.469-.008c1.21.547 1.21 2.36 0 2.906-.868.399-1.985-.101-2.227-1-.156-.562-.047-1.054.328-1.484a1.626 1.626 0 011.899-.422zm-21.914 8c.515.274.796.727.835 1.328.032.602-.187 1.078-.671 1.414-.375.266-1 .352-1.446.211-.57-.195-1.07-.906-1.07-1.531 0-.594.43-1.258.969-1.492.39-.164.984-.133 1.383.07z" fill="url(#paint1_linear_296_1077)"/><path d="M37.843 32.363c-2.656.438-4.82 1.594-6.718 3.57l-.703.735-4.883.039-4.883.039-.43.227c-.546.289-.828.523-1.187 1-.93 1.226-.75 3.21.367 4.195l.258.227-.352.367c-1.187 1.242-1.164 3.304.063 4.484l.297.297-.352.344c-.195.187-.46.57-.602.851-.234.469-.25.563-.25 1.328 0 .797.008.852.297 1.422.352.727.946 1.297 1.602 1.563l.445.18 5.977.038 5.976.04.57.382c1.126.742 2.5 1.297 4.032 1.625 1.148.25 3.336.242 4.5-.008 2.383-.507 4.258-1.523 5.938-3.203 1.687-1.687 2.695-3.539 3.218-5.921.25-1.11.25-3.47 0-4.579-.492-2.226-1.492-4.132-2.969-5.695-1.656-1.734-3.578-2.836-5.953-3.398-1.015-.242-3.234-.32-4.258-.149zm3.829 1.336c4.172.93 7.234 4.008 8.14 8.18.196.922.196 3.125-.008 4.047-1.093 5.047-5.523 8.531-10.593 8.336-1.586-.063-2.82-.375-4.172-1.047-2.938-1.461-4.946-4.055-5.64-7.305-.204-.922-.204-3.133-.009-4.031.72-3.274 2.72-5.867 5.664-7.32.805-.399 1.938-.766 2.75-.899.32-.047.641-.101.704-.117.296-.078 2.664.047 3.164.156zM29.28 38.527c-.414.79-.805 1.844-.976 2.61l-.149.648h-7.03l-.399-.187c-1.453-.672-1.351-2.993.141-3.54.188-.062 1.438-.093 4.484-.093l4.227-.008-.297.57zm-1.297 5.696c.031.718.11 1.492.211 1.937.086.406.156.75.156.766 0 .015-1.64.015-3.648 0-3.578-.024-3.664-.024-3.969-.196-.695-.375-1.016-.914-1.016-1.742 0-.953.477-1.61 1.368-1.883.11-.03 1.695-.062 3.523-.062l3.328-.008.047 1.188zm1.164 4.734c.43.898.969 1.719 1.625 2.5l.477.563H21.125l-.407-.188c-.757-.36-1.163-1.242-.976-2.148.125-.602.43-1.016.945-1.282l.43-.21h3.828l3.836.007.367.758z" fill="url(#paint2_linear_296_1077)"/><path d="M39.312 37.566c-.257.102-.335.32-.335.922v.54l-.563.038c-.727.047-1.242.305-1.734.852-1.18 1.312-.72 3.586.875 4.312.32.149.562.172 1.93.211 1.742.047 1.788.055 2.202.594.415.547.32 1.617-.187 2.078-.375.344-.625.375-2.781.375h-2.063l-.18.196c-.257.273-.242.632.032.875.203.171.273.18 1.343.18h1.126v.507c0 .602.101.86.398.984.18.07.281.07.46-.007.329-.133.392-.29.392-.93v-.555h.343c.188 0 .57-.07.844-.156.672-.203 1.148-.625 1.484-1.313.242-.484.258-.578.258-1.304 0-.696-.023-.836-.226-1.266-.258-.562-.743-1.054-1.282-1.297-.32-.148-.562-.172-1.93-.21-.96-.024-1.624-.079-1.718-.133-.422-.243-.742-.82-.742-1.329.008-.562.398-1.164.883-1.343.14-.055 1.03-.086 2.351-.086 2.04 0 2.14-.008 2.344-.164.258-.203.289-.688.047-.93-.14-.14-.258-.156-1.407-.156h-1.25v-.586c0-.524-.023-.617-.195-.781-.195-.204-.422-.235-.719-.118z" fill="url(#paint3_linear_296_1077)"/></g><defs><linearGradient id="paint0_linear_296_1077" x1="59" y1="60.5" x2="14" y2="7" gradientUnits="userSpaceOnUse"><stop stop-color="#FAB9E0" stop-opacity=".4"/><stop offset="1" stop-color="#FAB9E0" stop-opacity="0"/></linearGradient><linearGradient id="paint1_linear_296_1077" x1="18" y1="27.574" x2="50.547" y2="27.574" gradientUnits="userSpaceOnUse"><stop stop-color="#FF585F"/><stop offset="1" stop-color="#F957A2"/></linearGradient><linearGradient id="paint2_linear_296_1077" x1="18.438" y1="46.557" x2="51.211" y2="46.557" gradientUnits="userSpaceOnUse"><stop stop-color="#FF585F"/><stop offset="1" stop-color="#F957A2"/></linearGradient><linearGradient id="paint3_linear_296_1077" x1="36.018" y1="45.36" x2="43.156" y2="45.36" gradientUnits="userSpaceOnUse"><stop stop-color="#FF585F"/><stop offset="1" stop-color="#F957A2"/></linearGradient><clipPath id="clip0_296_1077"><path fill="#fff" transform="translate(15 15.5)" d="M0 0h40v40H0z"/></clipPath></defs></svg>