<svg width="70" height="70" fill="none" xmlns="http://www.w3.org/2000/svg"><circle cx="35" cy="35" r="34.5" fill="#37223B" stroke="url(#paint0_linear_296_1046)"/><path d="M23.688 15.516c-.211.148-.22.39-.055 1.75.148 1.234.289 2.148.633 4.062.68 3.828.765 5.602.39 7.5-.437 2.156-.797 3.508-1.836 6.953-.578 1.899-.992 3.633-1.406 5.86-.555 2.984-1.352 8.109-1.813 11.617-.171 1.312-.18 1.344-.03 1.5.195.219.554.21.695-.008.062-.102.226-1.086.39-2.29.711-5.273 1.89-12.194 2.375-13.968.055-.21.07-.203.719.547.977 1.125 3.742 3.875 4.688 4.664 1.46 1.219 2.93 2.102 3.867 2.32.218.047.437.102.5.125.086.024.093.258.047 1.375-.055 1.329-.055 1.352-.391 2.243a28.098 28.098 0 01-1.586 3.53c-.586 1.126-.602 1.157-.484 1.368.148.273.53.336.718.125.07-.078.47-.805.875-1.617.453-.899.75-1.406.75-1.29.008.102.04.766.078 1.47.079 1.398.141 1.57.555 1.57.406 0 .453-.195.39-1.563-.077-1.53.04-7.359.165-7.734.797-2.523 6.172-7.578 9.547-8.977.304-.125.68-.25.836-.28l.273-.056.29.626c.843 1.851 1.218 4.398.991 6.812-.093 1.102-.273 2.266-1.133 7.602-.484 2.976-.507 3.203-.39 3.382.148.227.5.25.687.047.078-.086.196-.593.328-1.422.11-.71.43-2.68.704-4.375.804-4.968.93-6.273.75-8.086-.188-1.953-.57-3.304-1.414-5.023-.86-1.766-1.547-2.828-3.633-5.64-1.383-1.868-1.742-2.391-2.016-2.938-.43-.852-.562-2.399-.328-3.922.133-.922.336-1.797 1.047-4.695.68-2.742.703-2.907.484-3.125-.21-.211-.343-.211-.578.008-.148.14-.234.374-.367 1-.094.453-.414 1.789-.703 2.968-.727 2.93-.867 3.672-.914 4.969-.063 1.664.148 2.633.82 3.758.203.336.969 1.422 1.703 2.406 1.735 2.344 1.703 2.297 1.578 2.336-.054.016-.414.11-.804.203-.992.25-2.297.727-4.453 1.649-4.149 1.757-5.391 2.086-7.57 2-1.243-.047-2.329-.282-3.65-.805-.726-.281-1.741-.766-1.913-.899-.063-.054-.032-.273.14-.796.36-1.149.97-3.57 1.282-5.094.468-2.297.414-3.828-.29-7.852-.374-2.148-.663-4.117-.742-4.984-.078-.914-.343-1.227-.797-.906zm19.945 19.07c.25.422.468.789.484.82.016.024-.156.102-.383.172-1.047.305-2.968 1.445-4.656 2.758-2.672 2.086-5.078 4.758-5.836 6.469l-.195.437-.297-.047c-.766-.133-2.281-1.039-3.734-2.242-.993-.828-3.399-3.226-4.664-4.656l-.985-1.11.117-.374c.063-.204.133-.47.164-.586.024-.118.063-.204.094-.188.985.547 2.54 1.148 3.766 1.461.805.21 1.164.258 2.148.29 2.282.077 3.742-.298 7.727-1.993 2.234-.945 3.453-1.399 4.61-1.695a38.677 38.677 0 011.093-.274c.047 0 .289.344.547.758z" fill="url(#paint1_linear_296_1046)"/><path d="M44.547 20.344c-.102.054-.328.36-.508.68-.305.53-.383.609-.898.906-.649.359-.79.515-.797.828 0 .273.32.594.937.945.344.195.485.344.742.781.407.696.641.883.993.782.25-.07.32-.157.898-1.086.078-.125.25-.297.375-.375.844-.524 1.008-.657 1.078-.852.086-.281-.07-.601-.398-.805-.883-.539-.992-.632-1.25-1.093-.414-.766-.735-.953-1.172-.711zm.836 1.867c.11.125.336.297.492.383l.29.164-.33.21a2.378 2.378 0 00-.812.837l-.148.25-.273-.407a2.634 2.634 0 00-.633-.648l-.375-.242.39-.25a2.44 2.44 0 00.633-.633l.25-.39.156.257c.079.133.243.352.36.469z" fill="url(#paint2_linear_296_1046)"/><path d="M30.156 28.36c-.117.117-.156.257-.156.609 0 .515.14.718.484.718.313 0 .453-.226.453-.726 0-.484-.171-.758-.468-.758-.086 0-.227.07-.313.156z" fill="url(#paint3_linear_296_1046)"/><path d="M19.453 31.383a9.47 9.47 0 00-.39.586 1.44 1.44 0 01-.602.562c-.477.242-.672.461-.672.75 0 .29.195.508.672.75.266.14.445.305.602.563.414.68.539.797.828.797.304 0 .46-.133.843-.735.164-.265.391-.476.711-.664.797-.476.797-.945 0-1.422-.32-.187-.547-.398-.71-.664-.383-.601-.54-.734-.844-.734a.483.483 0 00-.438.21zm.828 2.305l-.406.414-.156-.235a1.581 1.581 0 00-.399-.39c-.14-.086-.25-.172-.25-.196 0-.023.11-.11.25-.195a1.61 1.61 0 00.399-.39l.156-.235.406.406.414.414-.414.407z" fill="url(#paint4_linear_296_1046)"/><defs><linearGradient id="paint0_linear_296_1046" x1="59" y1="60" x2="14" y2="6.5" gradientUnits="userSpaceOnUse"><stop stop-color="#FAB9E0" stop-opacity=".4"/><stop offset="1" stop-color="#FAB9E0" stop-opacity="0"/></linearGradient><linearGradient id="paint1_linear_296_1046" x1="19.465" y1="39.703" x2="46.877" y2="39.703" gradientUnits="userSpaceOnUse"><stop stop-color="#FF585F"/><stop offset="1" stop-color="#F957A2"/></linearGradient><linearGradient id="paint2_linear_296_1046" x1="42.344" y1="23.348" x2="47.391" y2="23.348" gradientUnits="userSpaceOnUse"><stop stop-color="#FF585F"/><stop offset="1" stop-color="#F957A2"/></linearGradient><linearGradient id="paint3_linear_296_1046" x1="30" y1="29.116" x2="30.938" y2="29.116" gradientUnits="userSpaceOnUse"><stop stop-color="#FF585F"/><stop offset="1" stop-color="#F957A2"/></linearGradient><linearGradient id="paint4_linear_296_1046" x1="17.789" y1="33.766" x2="22.043" y2="33.766" gradientUnits="userSpaceOnUse"><stop stop-color="#FF585F"/><stop offset="1" stop-color="#F957A2"/></linearGradient></defs></svg>