<svg width="70" height="70" fill="none" xmlns="http://www.w3.org/2000/svg"><circle cx="35" cy="35" r="34.5" fill="#37223B" stroke="url(#paint0_linear_296_1058)"/><g clip-path="url(#clip0_296_1058)"><path d="M37.161 17.985c-.563.335-.73.774-.73 1.873 0 .976.07 1.257.422 1.635.308.325.712.492 1.205.492h.395v1.469l-.765.158c-1.072.21-2.276.606-3.41 1.116-1.82.827-2.682 1.046-5.68 1.424-2.118.273-2.769.414-3.753.783a6.777 6.777 0 00-2.558 1.688c-.554.598-.642.835-.414 1.142.106.15.282.176 1.345.23 1.662.087 2.374.333 2.893 1.001l.202.264-1.117.009c-1.327.009-2.04.21-3.314.914-1.662.923-2.532 1.319-3.12 1.398a4.404 4.404 0 01-2.225-.308c-.976-.413-1.17-.448-1.389-.255-.272.255-.184.642.396 1.855.633 1.31 1.16 2.11 1.986 2.972 1.011 1.063 1.9 1.635 3.21 2.083.544.185.773.211 1.933.211 1.196 0 1.398-.026 2.137-.246.79-.246 1.626-.334 1.846-.202.184.105.114.448-.159.826-.465.65-1.652 1.099-2.9 1.099-.616 0-.845-.044-1.32-.237a7.885 7.885 0 00-.773-.29c-.237-.062-.545.184-.545.44 0 .245.396 1.3.756 2.03.809 1.609 2.057 2.708 3.525 3.086 1.038.272 2.646.131 4.053-.343.589-.203.624-.203.756-.062.08.088.14.202.14.273 0 .061-.377.492-.834.958-.836.853-.959 1.081-.756 1.398.079.132 4.817 1.846 6.505 2.356a30.73 30.73 0 002.11.536c1.02.22 1.275.237 3.13.237 1.916.01 2.074-.008 3.068-.246 3.024-.712 5.265-1.978 7.367-4.167 1.846-1.925 3.085-4.307 3.692-7.077.167-.773.193-1.16.193-2.787 0-1.635-.026-2.013-.193-2.813-.484-2.224-1.503-4.466-2.708-5.943l-.29-.36.396-.466c.5-.589.65-.95.65-1.573 0-1.038-.483-1.82-1.424-2.286-1.037-.528-2.022-.325-2.857.58l-.449.492-1.002-.492c-1.142-.571-2.479-1.029-3.648-1.248l-.818-.159v-1.468h.396c.492 0 .897-.167 1.204-.492.352-.378.422-.66.422-1.679 0-.844-.026-.976-.22-1.319-.14-.228-.36-.448-.57-.553-.326-.168-.52-.176-3.183-.176h-2.84l-.369.22zm5.864.862c.21.105.22.15.246.985.017.747 0 .896-.132.984-.114.088-.791.114-2.76.114-2.286 0-2.638-.017-2.76-.14-.115-.114-.133-.308-.115-.985.026-.809.035-.853.246-.958.158-.08.862-.114 2.637-.114 1.776 0 2.48.035 2.638.114zm-1.758 3.815v.686h-1.759v-1.363h1.759v.677zm.421 1.785c1.706.184 3.156.598 4.633 1.345 3.693 1.846 6.233 5.16 7.13 9.292.237 1.064.237 4.114.009 5.187-1.152 5.345-5.046 9.31-10.286 10.47-1.046.237-3.481.325-4.694.167-1.6-.193-4.282-1.002-8.37-2.505-.078-.035.027-.203.361-.554.607-.633.703-.826.703-1.336 0-1.1-.888-1.636-2.066-1.249-1.855.616-3.13.668-4.237.158-.835-.386-1.723-1.31-2.25-2.347l-.247-.5.95.052c1.107.053 1.943-.105 2.804-.51.967-.457 1.688-1.398 1.688-2.206 0-1.135-1.204-1.6-2.91-1.135-1.195.334-2.022.449-2.672.396-1.873-.176-3.719-1.389-4.915-3.226-.5-.774-.879-1.477-.826-1.53.018-.017.273.035.554.106.378.105.774.131 1.406.096 1.108-.053 1.653-.246 3.245-1.16.659-.37 1.459-.783 1.784-.906.8-.29 2.084-.36 3.05-.158.642.132.713.132.915 0 .184-.123.21-.184.167-.51a4.614 4.614 0 00-.22-.765c-.545-1.23-1.52-1.88-3.191-2.118-.8-.115-.8-.159.018-.642 1.08-.633 2.057-.88 4.914-1.23 2.866-.352 3.428-.51 6.092-1.671 2.03-.88 4.308-1.24 6.462-1.011zm9.047.774c.29.158.633.606.73.975.113.422.008.791-.352 1.249l-.282.351-.633-.562a27.3 27.3 0 00-1.081-.915l-.466-.36.378-.413c.501-.554 1.073-.66 1.706-.325z" fill="url(#paint1_linear_296_1058)"/><path d="M38.638 27.4c-3.015.51-5.793 2.471-7.323 5.179-1.688 2.98-1.785 6.716-.264 9.758 2.33 4.66 7.79 6.936 12.668 5.274 3.57-1.213 6.286-4.386 6.963-8.131.167-.94.15-2.857-.044-3.78-1.187-5.61-6.426-9.231-12-8.3zm4.14 1.205c3.271.862 5.838 3.446 6.726 6.787.202.782.228 1.037.228 2.33 0 1.283-.026 1.547-.228 2.303-.985 3.71-3.974 6.409-7.71 6.971-1.055.167-1.758.167-2.813.009-5.547-.844-9.125-6.382-7.64-11.833.422-1.53 1.495-3.305 2.655-4.36 1.152-1.055 2.726-1.9 4.15-2.233 1.028-.246 1.116-.246 2.505-.22 1.029.017 1.442.07 2.128.246z" fill="url(#paint2_linear_296_1058)"/><path d="M39.93 29.29c-.132.071-.158.212-.158.774 0 .748.088.906.483.906.396 0 .484-.158.484-.862 0-.466-.035-.677-.14-.773-.159-.159-.449-.176-.669-.044z" fill="url(#paint3_linear_296_1058)"/><path d="M34.207 31.726c-.246.273-.175.501.326.976.527.492.668.536.931.272.282-.281.22-.536-.246-.993-.457-.448-.765-.528-1.01-.255z" fill="url(#paint4_linear_296_1058)"/><path d="M45.284 31.99c-.466.474-.536.8-.22 1.02.3.21.396.175.914-.308.51-.484.59-.739.317-.985-.281-.255-.563-.184-1.011.273z" fill="url(#paint5_linear_296_1058)"/><path d="M42.41 34.776c-1.24 1.231-1.301 1.275-1.53 1.187-.897-.343-2.022.36-2.26 1.416-.193.852.423 1.828 1.31 2.057 1.398.369 2.629-.932 2.172-2.277l-.15-.422 1.24-1.257c.958-.958 1.24-1.292 1.24-1.477 0-.246-.282-.501-.563-.501-.106 0-.686.51-1.46 1.274zm-1.486 2.41c.404.404.299.958-.22 1.212-.255.123-.343.123-.58.027-.554-.229-.668-.95-.202-1.319.325-.255.694-.228 1.002.08z" fill="url(#paint6_linear_296_1058)"/><path d="M31.86 37.37c-.097.097-.176.255-.176.351 0 .352.308.528.923.528s.923-.176.923-.528c0-.351-.308-.527-.923-.527-.457 0-.606.035-.747.176z" fill="url(#paint7_linear_296_1058)"/><path d="M47.174 37.335a.467.467 0 00-.194.386c0 .37.282.528.924.528.597 0 .8-.106.879-.457.096-.396-.194-.598-.862-.598-.352 0-.615.044-.747.14z" fill="url(#paint8_linear_296_1058)"/><path d="M34.533 42.741c-.51.484-.59.739-.317.985.281.255.563.184 1.011-.273.457-.457.51-.712.237-.984-.263-.264-.404-.22-.931.272z" fill="url(#paint9_linear_296_1058)"/><path d="M45.065 42.434c-.326.228-.255.553.228 1.028.457.448.765.528 1.011.255.246-.272.176-.501-.325-.976-.519-.483-.615-.518-.914-.307z" fill="url(#paint10_linear_296_1058)"/><path d="M40.027 44.526c-.194.088-.211.167-.238.773-.017.52.009.695.114.81.185.175.52.184.695 0 .176-.177.202-1.372.035-1.504-.21-.158-.396-.185-.606-.08z" fill="url(#paint11_linear_296_1058)"/></g><defs><linearGradient id="paint0_linear_296_1058" x1="59" y1="60" x2="14" y2="6.5" gradientUnits="userSpaceOnUse"><stop stop-color="#FAB9E0" stop-opacity=".4"/><stop offset="1" stop-color="#FAB9E0" stop-opacity="0"/></linearGradient><linearGradient id="paint1_linear_296_1058" x1="15" y1="38.82" x2="54.664" y2="38.82" gradientUnits="userSpaceOnUse"><stop stop-color="#FF585F"/><stop offset="1" stop-color="#F957A2"/></linearGradient><linearGradient id="paint2_linear_296_1058" x1="29.976" y1="40.107" x2="50.796" y2="40.107" gradientUnits="userSpaceOnUse"><stop stop-color="#FF585F"/><stop offset="1" stop-color="#F957A2"/></linearGradient><linearGradient id="paint3_linear_296_1058" x1="39.772" y1="30.29" x2="40.739" y2="30.29" gradientUnits="userSpaceOnUse"><stop stop-color="#FF585F"/><stop offset="1" stop-color="#F957A2"/></linearGradient><linearGradient id="paint4_linear_296_1058" x1="34.07" y1="32.531" x2="35.633" y2="32.531" gradientUnits="userSpaceOnUse"><stop stop-color="#FF585F"/><stop offset="1" stop-color="#F957A2"/></linearGradient><linearGradient id="paint5_linear_296_1058" x1="44.871" y1="32.531" x2="46.449" y2="32.531" gradientUnits="userSpaceOnUse"><stop stop-color="#FF585F"/><stop offset="1" stop-color="#F957A2"/></linearGradient><linearGradient id="paint6_linear_296_1058" x1="38.585" y1="37.19" x2="44.432" y2="37.19" gradientUnits="userSpaceOnUse"><stop stop-color="#FF585F"/><stop offset="1" stop-color="#F957A2"/></linearGradient><linearGradient id="paint7_linear_296_1058" x1="31.684" y1="37.843" x2="33.53" y2="37.843" gradientUnits="userSpaceOnUse"><stop stop-color="#FF585F"/><stop offset="1" stop-color="#F957A2"/></linearGradient><linearGradient id="paint8_linear_296_1058" x1="46.98" y1="37.843" x2="48.801" y2="37.843" gradientUnits="userSpaceOnUse"><stop stop-color="#FF585F"/><stop offset="1" stop-color="#F957A2"/></linearGradient><linearGradient id="paint9_linear_296_1058" x1="34.062" y1="43.27" x2="35.63" y2="43.27" gradientUnits="userSpaceOnUse"><stop stop-color="#FF585F"/><stop offset="1" stop-color="#F957A2"/></linearGradient><linearGradient id="paint10_linear_296_1058" x1="44.865" y1="43.273" x2="46.442" y2="43.273" gradientUnits="userSpaceOnUse"><stop stop-color="#FF585F"/><stop offset="1" stop-color="#F957A2"/></linearGradient><linearGradient id="paint11_linear_296_1058" x1="39.784" y1="45.558" x2="40.745" y2="45.558" gradientUnits="userSpaceOnUse"><stop stop-color="#FF585F"/><stop offset="1" stop-color="#F957A2"/></linearGradient><clipPath id="clip0_296_1058"><path fill="#fff" transform="translate(15 15)" d="M0 0h40v40H0z"/></clipPath></defs></svg>