<svg width="116" height="115" fill="none" xmlns="http://www.w3.org/2000/svg"><circle cx="58" cy="57.5" r="57" fill="#37223B" stroke="url(#paint0_linear_296_986)"/><g clip-path="url(#clip0_296_986)"><path d="M66.265 25.116c-.67.22-1.147.541-1.624 1.096-.283.309-4.795 6.045-10.042 12.749L45.06 51.142l-9.784 6.548c-7.347 4.912-9.861 6.665-10.145 7.039a3.992 3.992 0 00-.502 1.199c-.284 1.366-.452 1.082 7.476 12.89 3.996 5.956 7.412 10.996 7.593 11.19.722.786 2.024 1.16 3.08.876.323-.09 1.818-.993 3.61-2.179 1.676-1.121 3.12-2.075 3.197-2.114.064-.051.76.413 1.547 1.006 1.701 1.328 1.946 1.47 2.823 1.56a3.026 3.026 0 002.514-.903c.283-.296 2.771-3.416 5.517-6.922l5.001-6.38 1.302-.903c.71-.503 5.466-3.687 10.558-7.09 5.104-3.403 9.5-6.394 9.77-6.639.284-.245.607-.683.736-.967.283-.618.322-1.83.064-2.436-.09-.232-.941-1.573-1.87-2.965-.94-1.405-1.727-2.616-1.765-2.72-.039-.09.915-1.418 2.127-2.965 1.791-2.268 2.243-2.926 2.41-3.493.335-1.173.013-2.256-.94-3.158-.271-.258-4.46-3.57-9.32-7.36l-10.004-7.8c-.644-.502-1.366-1.018-1.598-1.134-.49-.258-1.715-.374-2.192-.206zm1.69 2.191c.308.207 5 3.855 10.428 8.096 6.368 4.975 9.925 7.837 10.029 8.07.154.309.154.438 0 .811-.168.439-3.7 5.066-3.868 5.08-.051 0-2.269-3.262-4.95-7.258-2.668-3.983-4.975-7.387-5.13-7.554-.696-.774-2.36-1.147-3.352-.735-.464.194-8.868 5.75-9.32 6.175-.58.528-.18 1.637.593 1.637.18 0 .76-.284 1.276-.632l.942-.619.747.735c2.99 3.004 7.425 3.88 11.421 2.282l1.083-.438 2.514 3.764 2.5 3.764-.644.631c-1.34 1.302-2.398 3.146-2.888 5.015-.18.657-.244 1.34-.231 2.578 0 1.83.18 2.72.825 4.15l.373.813-7.05 4.718c-3.881 2.59-10.739 7.18-15.238 10.196-4.498 3.004-8.25 5.505-8.34 5.543-.077.026-.477-.27-.89-.67-2.977-2.99-7.85-3.88-11.614-2.14l-.786.374-2.552-3.79-2.566-3.803.542-.477c2.062-1.856 3.287-4.666 3.3-7.63 0-1.65-.206-2.708-.812-4.165-.207-.502-.374-.915-.348-.928.013-.013 5.478-3.66 12.143-8.108 6.664-4.46 12.284-8.276 12.478-8.482.412-.438.4-.877-.039-1.315-.464-.477-.786-.322-4.525 2.166-1.972 1.315-3.596 2.372-3.596 2.333 0-.129 15.495-19.852 15.868-20.212.49-.452.941-.452 1.676.025zm4.859 8.43c.155.091 1.108 1.38 2.101 2.875l1.792 2.695-.632.296c-2.939 1.354-6.819.606-9.281-1.779l-.554-.541 2.784-1.857c2.875-1.907 3.158-2.036 3.79-1.688zM85.859 54.92c1.844 2.759 1.998 3.12 1.676 3.738-.193.348-5.543 3.906-5.672 3.764-.064-.051-.27-.567-.464-1.134-.322-.915-.361-1.212-.361-2.643 0-1.43.039-1.727.361-2.642a11.16 11.16 0 01.8-1.766c.476-.786 1.546-2.037 1.74-2.037.064 0 .928 1.225 1.92 2.72zm-53.238 7.94c1.16 3.056.528 6.472-1.599 8.766l-.799.864-1.779-2.617c-.966-1.43-1.83-2.771-1.895-2.965-.257-.747.013-1.03 2.85-2.964 1.456-.993 2.706-1.805 2.797-1.805.077-.013.27.322.425.722zm27.74 17.403c-.76.98-2.242 2.862-3.287 4.19-1.044 1.327-2.036 2.5-2.191 2.616-.335.232-.825.245-1.199.026-.142-.09-.709-.503-1.25-.928-.658-.503-.941-.812-.864-.89.206-.206 9.977-6.767 10.093-6.78.052 0-.528.8-1.301 1.766zm-17.105 2.295c1.263.257 2.874 1.095 3.802 1.959.426.387.774.748.774.812 0 .18-5.492 3.738-5.762 3.738-.684 0-.98-.322-2.772-3.003-.98-1.47-1.753-2.733-1.714-2.797.077-.117 1.843-.722 2.384-.813.748-.129 2.45-.077 3.288.104z" fill="url(#paint1_linear_296_986)"/><path d="M73.484 50.175c-2.475 1.676-2.513 1.715-2.552 2.192-.052.644.245.992.838.992.335 0 .967-.36 2.926-1.675 2.127-1.405 2.514-1.728 2.591-2.05.142-.645-.31-1.186-.993-1.16-.167 0-1.43.773-2.81 1.701z" fill="url(#paint2_linear_296_986)"/><path d="M54.883 49.815c-5.002.953-8.805 4.498-10.094 9.41-.464 1.753-.49 4.215-.077 5.904 1.005 4.073 3.854 7.412 7.631 8.946 1.096.438 2.372.734 2.772.631.567-.142.85-1.25.4-1.611-.078-.064-.606-.245-1.174-.4-6.045-1.637-9.423-7.927-7.425-13.844.542-1.637 1.29-2.81 2.643-4.138 2.062-2.024 4.112-2.952 6.974-3.12 5.169-.296 9.822 3.197 11.034 8.276.387 1.637.31 4.022-.206 5.608-1.044 3.274-3.545 5.878-6.703 6.96-.98.336-1.225.568-1.225 1.16 0 1.032.8 1.148 2.591.4 2.772-1.147 5.092-3.364 6.433-6.123 1.018-2.088 1.211-2.952 1.211-5.62 0-2.088-.026-2.346-.348-3.39-1.379-4.5-4.705-7.683-9.216-8.87-1.328-.347-3.855-.437-5.221-.18z" fill="url(#paint3_linear_296_986)"/><path d="M51.906 54.92c-.426.334-.439.889-.052 1.43l.27.4-.438.786c-.4.722-.438.877-.438 1.882 0 .877.065 1.199.284 1.624.683 1.29 2.024 1.947 3.712 1.818l.915-.065 1.393 2.063c.863 1.276 1.353 2.101 1.276 2.178-.065.065-.49.18-.954.258-.451.078-.954.168-1.096.194-.335.064-.631.696-.515 1.147.038.167.232.412.412.541.297.194.451.194 1.354.065.554-.078 1.237-.258 1.52-.4l.516-.27.27.45c.478.774 1.084.929 1.612.387.413-.4.413-.85 0-1.456-.283-.426-.296-.49-.129-.735.735-1.006.903-1.521.903-2.772 0-1.16-.026-1.263-.464-2.062-.516-.941-1.264-1.586-2.089-1.818-.335-.09-1.057-.116-1.869-.077l-1.328.064-1.03-1.534c-.568-.85-.993-1.598-.955-1.663.039-.077.361-.128.696-.128.838 0 1.225-.31 1.225-.967 0-.774-.4-1.019-1.534-.928-.49.038-1.07.142-1.263.232-.335.154-.387.142-.516-.078-.451-.825-1.096-1.03-1.688-.567zm2.242 4.885l.787 1.16h-.503c-.683 0-1.186-.529-1.276-1.34-.065-.542 0-.98.142-.98.038 0 .425.515.85 1.16zm5.943 2.913c.722.67.967 1.792.58 2.694l-.155.387-1.07-1.586c-1.405-2.1-1.379-2.01-.477-1.933.58.051.813.142 1.122.438z" fill="url(#paint4_linear_296_986)"/><path d="M39.814 72.708c-2.836 1.882-2.939 1.972-2.939 2.514 0 .477.477.954.954.954.283 0 5.04-3.107 5.324-3.468.18-.232.206-.644.09-.98-.077-.193-.696-.58-.941-.58-.065 0-1.186.71-2.488 1.56z" fill="url(#paint5_linear_296_986)"/></g><defs><linearGradient id="paint0_linear_296_986" x1="97.429" y1="98.571" x2="23.5" y2="10.679" gradientUnits="userSpaceOnUse"><stop stop-color="#FAB9E0" stop-opacity=".4"/><stop offset="1" stop-color="#FAB9E0" stop-opacity="0"/></linearGradient><linearGradient id="paint1_linear_296_986" x1="24.533" y1="65.591" x2="90.448" y2="65.591" gradientUnits="userSpaceOnUse"><stop stop-color="#FF585F"/><stop offset="1" stop-color="#F957A2"/></linearGradient><linearGradient id="paint2_linear_296_986" x1="70.926" y1="51.478" x2="77.313" y2="51.478" gradientUnits="userSpaceOnUse"><stop stop-color="#FF585F"/><stop offset="1" stop-color="#F957A2"/></linearGradient><linearGradient id="paint3_linear_296_986" x1="44.421" y1="65.079" x2="69.668" y2="65.079" gradientUnits="userSpaceOnUse"><stop stop-color="#FF585F"/><stop offset="1" stop-color="#F957A2"/></linearGradient><linearGradient id="paint4_linear_296_986" x1="51.248" y1="63.934" x2="62.721" y2="63.934" gradientUnits="userSpaceOnUse"><stop stop-color="#FF585F"/><stop offset="1" stop-color="#F957A2"/></linearGradient><linearGradient id="paint5_linear_296_986" x1="36.875" y1="74.24" x2="43.313" y2="74.24" gradientUnits="userSpaceOnUse"><stop stop-color="#FF585F"/><stop offset="1" stop-color="#F957A2"/></linearGradient><clipPath id="clip0_296_986"><path fill="#fff" transform="translate(24.5 25)" d="M0 0h66v66H0z"/></clipPath></defs></svg>